<?xml version="1.0" encoding="UTF-8"?>
<svg version="1.1" xmlns="http://www.w3.org/2000/svg" width="512" height="512">
<path d="M0 0 C0.73750488 0.16097168 1.47500977 0.32194336 2.23486328 0.48779297 C40.99834511 9.29267723 74.35473796 33.03384837 95.90917969 66.26123047 C109.96439011 88.66526105 120.31679904 119.21991885 117 146 C115.35898928 151.37541889 112.78390445 154.93339458 108 158 C105.07001171 158.97666276 103.2007556 159.12627576 100.15016174 159.12840271 C99.14327616 159.13131002 98.13639057 159.13421734 97.0989933 159.13721275 C95.43266129 159.13394698 95.43266129 159.13394698 93.73266602 159.13061523 C91.9625393 159.13241004 91.9625393 159.13241004 90.15665245 159.1342411 C86.86631159 159.13555577 83.57605838 159.13180616 80.28572917 159.12504125 C78.17648885 159.12106563 76.06725295 159.11882376 73.95800972 159.117033 C37.08068145 159.08152209 0.20682355 158.62403437 -36.6672014 158.16577852 C-43.22414934 158.0845265 -49.78112881 158.00635062 -56.33813477 157.92993164 C-75.9473032 157.70116521 -95.55625505 157.46279965 -115.16486549 157.18990517 C-116.75958882 157.16771661 -118.3543122 157.14553218 -119.94903564 157.12335205 C-120.71960104 157.11262315 -121.49016643 157.10189424 -122.28408229 157.09084022 C-127.22715288 157.02264156 -132.17025497 156.96127526 -137.11346436 156.9039917 C-142.86507202 156.83725397 -148.61632672 156.75805783 -154.36758232 156.66589165 C-156.33591415 156.63653363 -158.30432556 156.61202043 -160.27278328 156.59288216 C-162.87685397 156.56681032 -165.48001109 156.52313405 -168.08374023 156.47436523 C-169.1790484 156.46984376 -169.1790484 156.46984376 -170.29648399 156.46523094 C-175.57563722 156.33656285 -179.73519142 155.11417998 -183.64453125 151.46484375 C-190.09519765 143.02935692 -188.68713997 132.38605331 -187.50390625 122.14453125 C-182.63388744 86.25014565 -164.07096991 53.01877257 -135.81542969 30.23876953 C-131.0259396 26.59505484 -126.05959863 23.25418543 -121 20 C-119.49759766 19.00419922 -119.49759766 19.00419922 -117.96484375 17.98828125 C-84.08411929 -3.21695417 -38.58900683 -8.59525102 0 0 Z " fill="#000000" transform="translate(387,252)"/>
<path d="M0 0 C-1.48265136 4.21385123 -3.61823946 7.56410123 -6.125 11.25 C-20.75613789 33.52148072 -29.07587317 60.64932879 -29.25 87.3125 C-29.2809375 88.47942383 -29.2809375 88.47942383 -29.3125 89.66992188 C-29.34297008 94.31280066 -28.75491361 98.33461744 -27.47949219 102.80932617 C-27.2040155 103.78560471 -26.92853882 104.76188324 -26.64471436 105.76774597 C-26.43195862 106.5043898 -26.21920288 107.24103363 -26 108 C-31.05176008 107.94861332 -36.10351774 107.89699583 -41.15527344 107.84518051 C-43.03411839 107.8259115 -44.91296361 107.80666785 -46.79180908 107.78744888 C-58.25921702 107.66998696 -69.72656766 107.54857434 -81.19384766 107.41918945 C-84.43708874 107.3827492 -87.68033036 107.34635777 -90.92357254 107.31001472 C-93.10724581 107.28554338 -95.2909184 107.26101063 -97.4745903 107.23641777 C-110.68139652 107.088508 -123.88791311 106.96549817 -137.0953064 106.88545227 C-143.11429625 106.84864273 -149.13315689 106.79905304 -155.15201759 106.74531841 C-159.92143085 106.70370971 -164.69055237 106.67871162 -169.46012497 106.66588211 C-172.40105179 106.65381211 -175.34165136 106.62540883 -178.28240967 106.59231186 C-180.25883861 106.57489805 -182.23541069 106.57710517 -184.21191406 106.58010864 C-191.27022515 106.48133418 -196.02006459 105.85132628 -202 102 C-207.73749546 95.968274 -207.4108404 89.72566531 -207.2734375 81.875 C-206.21148251 55.71515837 -193.93162724 33.33188678 -176 15 C-175.29875 14.24847656 -174.5975 13.49695313 -173.875 12.72265625 C-130.05885931 -33.30195927 -50.96742828 -30.49912597 0 0 Z " fill="#000000" transform="translate(214,300)"/>
<path d="M0 0 C14.35546434 11.70990834 26.06794902 27.89121936 28.30664062 46.72021484 C29.76601625 68.44058871 26.97909464 88.67535502 12.32739258 105.62890625 C-0.87957734 120.09489289 -17.32732525 130.10586173 -37.24804688 131.03271484 C-57.93878131 131.62467515 -76.50369154 127.612305 -92.13085938 113.34521484 C-106.8738166 99.20544466 -115.50400135 82.70692505 -116.09399414 62.08496094 C-116.33065412 41.68831843 -111.22582647 23.74080029 -96.89331055 8.796875 C-71.34187485 -16.78517169 -29.7766123 -22.50418132 0 0 Z " fill="#000000" transform="translate(395.693359375,101.27978515625)"/>
<path d="M0 0 C2.44225447 1.66159248 4.74768159 3.38773224 7.0390625 5.25 C7.86148438 5.86875 8.68390625 6.4875 9.53125 7.125 C19.01135737 15.15798818 26.15442074 27.99599421 27.23193359 40.4855957 C27.80176157 57.74447646 26.33180617 71.35512524 15.0390625 85.25 C14.41644531 86.08144531 13.79382813 86.91289062 13.15234375 87.76953125 C5.06558632 97.26138146 -8.2378086 104.14149419 -20.63989258 105.55541992 C-23.37919435 105.68602872 -26.09374992 105.71781637 -28.8359375 105.6875 C-29.80120361 105.67992676 -30.76646973 105.67235352 -31.76098633 105.66455078 C-39.0908864 105.49542298 -45.31274169 104.48425742 -51.9609375 101.25 C-52.92257813 100.79109375 -53.88421875 100.3321875 -54.875 99.859375 C-68.84357128 92.70565925 -77.83604015 81.93720914 -83.0859375 67.0625 C-87.46207351 52.99634854 -86.39562354 36.47327982 -79.9609375 23.25 C-77.85984497 19.69502648 -75.56306644 16.45172464 -72.9609375 13.25 C-72.3421875 12.42757812 -71.7234375 11.60515625 -71.0859375 10.7578125 C-54.25015514 -9.11088653 -22.01325939 -13.01047521 0 0 Z " fill="#000000" transform="translate(164.9609375,158.75)"/>
</svg>
